<svg width="113" height="26" viewBox="0 0 113 26" fill="none" xmlns="http://www.w3.org/2000/svg">
<path d="M26.3719 8.48364V2.41339C22.4751 2.41339 18.6757 3.72456 15.948 6.00697L15.2173 6.58972L14.4867 6.00697C11.7102 3.72456 7.95958 2.41339 4.06281 2.41339V8.48364C4.06281 10.1347 4.64733 11.6887 5.62152 12.9999C4.64733 14.3111 4.06281 15.8651 4.06281 17.5162V23.5864C7.95958 23.5864 11.7589 22.2752 14.4867 19.9928L15.2173 19.4101C13.3177 18.2932 12.1486 16.3021 12.1486 14.0683V11.9315C12.1486 9.74625 13.3177 7.70665 15.2173 6.58972C17.117 7.70665 18.2861 9.74625 18.2861 11.9315V14.0683C18.2861 16.2536 17.117 18.2932 15.2173 19.4101L15.948 19.9928C18.7244 22.2752 22.4751 23.5864 26.3719 23.5864V17.5162C26.3719 15.8651 25.7874 14.3111 24.8132 12.9999C25.7874 11.6887 26.3719 10.1347 26.3719 8.48364Z" fill="#FF4F00"/>
<path d="M40.9939 21.7442C39.3477 21.7442 37.9093 21.37 36.6788 20.6217C35.4483 19.8734 34.4921 18.8341 33.8103 17.5038C33.1285 16.1569 32.7877 14.5938 32.7877 12.8145C32.7877 11.0186 33.1369 9.43892 33.8353 8.07536C34.5503 6.69518 35.5563 5.62262 36.8534 4.8577C38.1671 4.07615 39.7218 3.68538 41.5177 3.68538C43.5631 3.68538 45.2592 4.17592 46.6061 5.15702C47.9531 6.13811 48.8261 7.49335 49.2252 9.22274H45.6583C45.3922 8.40793 44.91 7.77604 44.2116 7.32707C43.5132 6.86146 42.6152 6.62866 41.5177 6.62866C39.7717 6.62866 38.4248 7.18572 37.477 8.29985C36.5291 9.39734 36.0552 10.9106 36.0552 12.8395C36.0552 14.7684 36.5208 16.265 37.452 17.3292C38.3999 18.3769 39.6803 18.9007 41.2933 18.9007C42.873 18.9007 44.0619 18.4766 44.8601 17.6286C45.6749 16.7639 46.1655 15.6331 46.3318 14.2363H41.9168V11.8418H49.5494V21.4449H46.6061L46.3567 19.1501C45.7913 19.9815 45.0846 20.6217 44.2365 21.0707C43.3885 21.5197 42.3076 21.7442 40.9939 21.7442ZM57.8439 21.7442C56.5967 21.7442 55.4909 21.4781 54.5265 20.946C53.562 20.4139 52.8054 19.6656 52.2567 18.7011C51.7079 17.7366 51.4335 16.6225 51.4335 15.3587C51.4335 14.0783 51.6996 12.9393 52.2317 11.9415C52.7805 10.9438 53.5287 10.1706 54.4766 9.62183C55.4411 9.05645 56.5718 8.77377 57.8688 8.77377C59.0827 8.77377 60.1553 9.03983 61.0865 9.57195C62.0177 10.1041 62.7411 10.8357 63.2566 11.7669C63.7887 12.6815 64.0547 13.7042 64.0547 14.8349C64.0547 15.0179 64.0464 15.2091 64.0298 15.4086C64.0298 15.6082 64.0215 15.816 64.0048 16.0322H54.6013C54.6678 16.9967 55.0004 17.7533 55.599 18.302C56.2143 18.8508 56.9543 19.1251 57.819 19.1251C58.4675 19.1251 59.0079 18.9838 59.4403 18.7011C59.8892 18.4018 60.2218 18.0193 60.438 17.5537H63.6806C63.4478 18.3353 63.057 19.0503 62.5083 19.6988C61.9761 20.3307 61.311 20.8296 60.5128 21.1954C59.7313 21.5613 58.8416 21.7442 57.8439 21.7442ZM57.8688 11.3678C57.0873 11.3678 56.3972 11.5923 55.7986 12.0413C55.1999 12.4737 54.8175 13.1388 54.6512 14.0368H60.8121C60.7622 13.222 60.4629 12.5734 59.9142 12.0912C59.3654 11.609 58.6837 11.3678 57.8688 11.3678ZM65.9942 21.4449V9.07308H68.8128L69.0622 11.1683C69.4447 10.4366 69.9934 9.85463 70.7084 9.42229C71.4401 8.98994 72.2965 8.77377 73.2776 8.77377C74.8074 8.77377 75.9964 9.256 76.8444 10.2205C77.6925 11.1849 78.1165 12.5984 78.1165 14.4608V21.4449H74.9238V14.7601C74.9238 13.6959 74.7076 12.8811 74.2753 12.3157C73.8429 11.7503 73.1695 11.4676 72.2549 11.4676C71.357 11.4676 70.617 11.7836 70.035 12.4155C69.4696 13.0473 69.1869 13.9287 69.1869 15.0594V21.4449H65.9942ZM79.3761 21.4449L85.7615 3.98469H89.3533L95.7388 21.4449H92.3465L90.9497 17.4041H84.1402L82.7185 21.4449H79.3761ZM85.0132 14.9098H90.0767L87.5325 7.65133L85.0132 14.9098ZM97.2421 21.4449V3.98469H100.435V21.4449H97.2421Z" fill="#1C1C1C"/>
</svg>
